<svg xmlns="http://www.w3.org/2000/svg" width="13" height="24"><path fill="#FFF" d="M11.326.006H1.673C.75.006.004.788.004 1.752V22.25c0 .963.746 1.746 1.669 1.746h9.653c.922 0 1.67-.783 1.67-1.746V1.751c0-.963-.746-1.745-1.67-1.745zm-7.208 1.06h4.765c.121 0 .219.188.219.422 0 .232-.098.422-.219.422H4.118c-.121 0-.217-.189-.217-.422 0-.234.096-.422.217-.422zM6.5 22.271c-.588 0-1.066-.5-1.066-1.115 0-.618.479-1.115 1.066-1.115.587 0 1.066.499 1.066 1.115 0 .615-.48 1.115-1.066 1.115zm5.246-3.822H1.256V2.953h10.49v15.496z"/></svg>