<svg xmlns="http://www.w3.org/2000/svg" width="183" height="43"><path fill="#FFF" d="M13.118 12.75a176.75 176.75 0 00-2.291-3.375c-.813-1.17-1.631-2.3-2.454-3.39A89.747 89.747 0 005.949 2.91 36.316 36.316 0 003.777.48H0v20.79h4.581V7.65c1.745 2.06 3.391 4.25 4.938 6.57s2.984 4.67 4.313 7.05h3.897V.48h-4.611v12.27zm11.601 8.52h4.64V.48h-4.64v20.79zm23.558-3.75c-.278.06-.6.101-.966.12-.367.02-.809.029-1.324.029-.952 0-1.785-.164-2.499-.494s-1.309-.795-1.785-1.396c-.476-.6-.833-1.315-1.071-2.146-.238-.829-.357-1.754-.357-2.774 0-2.1.48-3.754 1.443-4.965.961-1.21 2.523-1.815 4.685-1.815.972 0 1.869.125 2.692.375.823.251 1.551.546 2.186.886l1.339-3.75c-.159-.1-.422-.24-.788-.42-.367-.18-.833-.355-1.398-.525s-1.24-.32-2.022-.45A16.196 16.196 0 0045.778 0c-1.428 0-2.771.24-4.03.72a9.265 9.265 0 00-3.287 2.115c-.933.93-1.666 2.065-2.201 3.405-.536 1.34-.803 2.88-.803 4.62 0 1.72.243 3.251.729 4.59.485 1.341 1.175 2.471 2.067 3.39.892.921 1.968 1.621 3.227 2.101s2.663.72 4.209.72c1.804 0 3.322-.125 4.551-.375s2.121-.484 2.678-.705V10.29h-4.641v7.23zm23.618-9.09h-7.793V.48h-4.641v20.79h4.641v-8.82h7.793v8.82h4.641V.48h-4.641v7.95zM81.74.48v3.99h6.217v16.8h4.641V4.47h6.217V.48H81.74z"/><path fill="#FF2A70" d="M117.441 16.771a7.48 7.48 0 01-1.102.375 12.367 12.367 0 01-3.242.405c-1.07 0-1.982-.176-2.736-.525s-1.363-.825-1.83-1.425c-.465-.601-.803-1.315-1.011-2.146s-.313-1.725-.313-2.685c0-1.2.159-2.22.476-3.06.317-.84.739-1.525 1.265-2.056s1.13-.915 1.814-1.155 1.384-.359 2.097-.359c1.071 0 2.027.119 2.871.359.843.24 1.581.531 2.216.871l1.339-3.781a9.192 9.192 0 00-2.112-.944 15.437 15.437 0 00-1.874-.45A13.32 13.32 0 00112.92 0c-1.508 0-2.906.24-4.195.721a9.186 9.186 0 00-3.331 2.115c-.933.93-1.665 2.069-2.201 3.42-.535 1.35-.804 2.885-.804 4.604 0 3.46.878 6.13 2.633 8.011 1.756 1.879 4.309 2.819 7.66 2.819 1.566 0 2.945-.16 4.135-.479 1.189-.32 2.111-.68 2.766-1.08l-1.279-3.75c-.259.119-.546.25-.863.39zM129.428.48h-4.64v20.79h13.772v-4.02h-9.133V.48zm25.968 12.541c0 1.68-.353 2.87-1.057 3.569-.703.701-1.621 1.051-2.751 1.051-.556 0-1.066-.08-1.532-.24s-.862-.425-1.189-.795c-.328-.37-.586-.85-.773-1.439-.189-.59-.283-1.306-.283-2.146V.48h-4.641v12.93c0 1.221.164 2.336.492 3.346a6.817 6.817 0 001.516 2.609c.686.73 1.553 1.301 2.604 1.71 1.051.41 2.301.615 3.748.615 1.467 0 2.736-.199 3.808-.6 1.071-.399 1.952-.965 2.647-1.694.693-.729 1.209-1.604 1.547-2.625.336-1.021.506-2.14.506-3.36V.48h-4.641v12.541zm26.89-.96c-.476-.859-1.368-1.54-2.677-2.04 1.586-.96 2.379-2.271 2.379-3.931 0-1.1-.223-2.024-.669-2.774s-1.066-1.354-1.859-1.815c-.794-.459-1.739-.784-2.841-.975a21.386 21.386 0 00-3.613-.285c-.973 0-2.023.045-3.154.135-1.13.09-2.171.226-3.123.405v20.16c1.21.261 2.375.425 3.496.496 1.119.07 2.245.105 3.375.105 3.113 0 5.459-.551 7.035-1.651S183 17.15 183 14.971c0-1.08-.238-2.051-.714-2.91zM171.25 4.11c.357-.04.764-.064 1.22-.075.456-.01.882-.015 1.279-.015 1.229 0 2.161.17 2.796.51.635.341.952.931.952 1.771 0 .82-.308 1.414-.923 1.785-.614.369-1.635.555-3.063.555h-2.262V4.11zm5.771 12.991c-.854.399-1.975.6-3.361.6-.477 0-.913-.01-1.309-.03-.397-.02-.764-.049-1.102-.09v-5.369h2.916c1.328 0 2.35.205 3.063.614.715.41 1.071 1.095 1.071 2.056.001 1.079-.426 1.819-1.278 2.219z"/><path fill="#FFF" d="M4.691 38.811H1.246V35.92H.26v6.93h.986v-3.2h3.445v3.199h.985v-6.93h-.985v2.892zm13.154.229c-.227-.56-.452-1.095-.676-1.604s-.458-1.016-.701-1.516h-.904c-.244.5-.478 1.006-.701 1.516s-.449 1.045-.676 1.604c-.227.56-.459 1.151-.696 1.774-.237.624-.491 1.303-.762 2.035h1.026l.64-1.77h3.191c.108.3.213.596.315.885.102.29.21.586.325.885h1.077c-.271-.732-.525-1.411-.762-2.035a88.305 88.305 0 00-.696-1.774zm-3.165 1.24c.21-.58.422-1.142.635-1.685.213-.544.438-1.065.676-1.565.23.5.452 1.021.666 1.565.213.543.428 1.104.645 1.685H14.68zm14.612-1.315a43.695 43.695 0 01-1.087 2.735c-.373-.854-.735-1.767-1.087-2.74s-.711-1.986-1.077-3.04h-1.087c.251.733.495 1.412.732 2.035.237.623.469 1.215.696 1.775a76.167 76.167 0 001.347 3.119h.925a67.387 67.387 0 002.028-4.894c.233-.623.479-1.302.736-2.035h-1.057a193.265 193.265 0 01-1.069 3.045zm10.183.655h2.947v-.81h-2.947v-2.06h3.313v-.83H38.49v6.93h4.553v-.83h-3.567v-2.4zm23.682-.58a62.624 62.624 0 00-.676-1.604 41.63 41.63 0 00-.702-1.516h-.904c-.244.5-.478 1.006-.701 1.516s-.449 1.045-.676 1.604c-.227.56-.459 1.151-.696 1.774-.237.624-.491 1.303-.762 2.035h1.026l.64-1.77h3.191c.108.3.213.596.315.885.102.29.21.586.325.885h1.077c-.271-.732-.525-1.411-.762-2.035a94.933 94.933 0 00-.695-1.774zm-3.166 1.24c.21-.58.422-1.142.635-1.685a24.54 24.54 0 01.675-1.565c.23.5.452 1.021.666 1.565.213.543.428 1.104.645 1.685h-2.621zm24.419 1.74a3.3 3.3 0 01-.432.086 5.14 5.14 0 01-.727.045c-.4 0-.747-.066-1.042-.2a2.026 2.026 0 01-.742-.565 2.408 2.408 0 01-.447-.875 4.037 4.037 0 01-.147-1.13c0-.427.058-.812.173-1.155.115-.343.276-.635.482-.875s.458-.423.752-.549c.295-.127.622-.191.981-.191.338 0 .67.043.996.125.325.084.586.189.783.316l.315-.811c-.041-.027-.117-.066-.229-.12s-.256-.106-.432-.16-.388-.101-.635-.14a5.345 5.345 0 00-.848-.061c-.468 0-.906.08-1.316.24-.41.16-.767.394-1.072.7s-.547.685-.727 1.135c-.18.45-.27.966-.27 1.545 0 .58.08 1.094.239 1.54.159.447.385.824.676 1.131.292.307.64.539 1.047.699.406.16.857.24 1.352.24.244 0 .484-.012.721-.035a9.928 9.928 0 001.184-.186c.152-.033.27-.063.351-.09v-3.24h-.986v2.581zm14.074-5.344a2.989 2.989 0 00-1.063-.686 3.589 3.589 0 00-1.285-.23c-.461 0-.896.077-1.307.23a3 3 0 00-1.076.686c-.309.303-.553.682-.732 1.135s-.27.977-.27 1.569c0 .594.09 1.116.27 1.57.18.453.424.831.732 1.135a3.02 3.02 0 001.076.685c.41.154.846.23 1.307.23.453 0 .883-.076 1.285-.23.403-.152.758-.381 1.063-.685s.547-.682.727-1.135c.18-.454.269-.977.269-1.57 0-.593-.089-1.116-.269-1.569s-.422-.832-.727-1.135zm-.213 3.849a2.55 2.55 0 01-.462.875c-.2.24-.442.425-.727.555-.285.13-.607.195-.966.195s-.683-.065-.971-.195-.532-.314-.731-.555-.354-.531-.463-.875a3.841 3.841 0 01-.162-1.146c0-.42.055-.802.162-1.146.109-.343.264-.635.463-.875.199-.239.443-.424.731-.555.288-.129.611-.195.971-.195.358 0 .681.066.966.195.284.131.526.315.727.555.199.24.354.532.462.875.108.344.163.726.163 1.146a3.8 3.8 0 01-.163 1.146zm14.215-3.849c-.305-.305-.658-.532-1.062-.686s-.831-.23-1.285-.23c-.461 0-.896.077-1.306.23s-.77.381-1.078.686a3.22 3.22 0 00-.73 1.135c-.18.453-.27.977-.27 1.569 0 .594.09 1.116.27 1.57.179.453.423.831.73 1.135.309.304.668.532 1.078.685.41.154.845.23 1.306.23.454 0 .882-.076 1.285-.23a2.977 2.977 0 001.062-.685c.306-.304.548-.682.727-1.135.18-.454.27-.977.27-1.57 0-.593-.09-1.116-.27-1.569a3.247 3.247 0 00-.727-1.135zm-.213 3.849a2.535 2.535 0 01-.463.875c-.199.24-.441.425-.727.555-.284.13-.605.195-.965.195s-.683-.065-.971-.195c-.287-.13-.531-.314-.731-.555s-.354-.531-.462-.875a3.777 3.777 0 01-.163-1.146c0-.42.054-.802.163-1.146.107-.343.262-.635.462-.875.2-.239.444-.424.731-.555.288-.129.611-.195.971-.195s.681.066.965.195c.285.131.527.315.727.555.2.24.354.532.463.875.108.344.162.726.162 1.146.001.422-.053.803-.162 1.146zm13.465-3.81a3.46 3.46 0 00-1.24-.65 5.543 5.543 0 00-1.585-.215c-.284 0-.599.012-.94.035s-.652.068-.93.135v6.721c.277.066.588.111.93.135s.656.035.94.035c.575 0 1.104-.072 1.585-.215.48-.144.895-.36 1.24-.65s.613-.656.803-1.1.284-.965.284-1.565-.095-1.122-.284-1.565-.457-.811-.803-1.101zm-.65 4.64c-.461.47-1.158.705-2.094.705-.277 0-.492-.004-.645-.01a6.506 6.506 0 01-.32-.021v-5.3c.061-.007.168-.014.32-.021s.367-.01.645-.01c.936 0 1.633.235 2.094.705s.69 1.128.69 1.975-.229 1.507-.69 1.977zm17.031-4.595h2.215v6.09h.986v-6.09h2.215v-.84h-5.416v.84zm12.549 6.09h.986v-6.93h-.986v6.93zm14.756-6.93c-.184.293-.38.641-.59 1.04s-.42.818-.63 1.255c-.21.438-.413.873-.61 1.311l-.538 1.195c-.163-.361-.343-.759-.538-1.195-.197-.438-.4-.873-.61-1.311-.21-.437-.42-.855-.63-1.255s-.406-.747-.59-1.04h-.863c-.061.5-.117 1.03-.168 1.59-.051.561-.098 1.135-.143 1.725-.043.591-.082 1.191-.116 1.801s-.064 1.215-.091 1.814h.965c.033-.933.074-1.857.121-2.774.048-.917.109-1.769.184-2.556.068.113.157.277.27.49.111.214.232.455.36.725l.411.861c.146.303.283.598.412.885l.361.8c.111.247.201.45.269.61h.793c.067-.16.157-.363.269-.61l.361-.8c.129-.287.266-.582.412-.885l.411-.861c.128-.27.249-.511.36-.725.111-.213.201-.377.27-.49.074.787.135 1.639.184 2.556.047.917.088 1.842.121 2.774h.965a126.666 126.666 0 00-.518-6.93h-.864zm10.009 6.1v-2.4h2.946v-.81h-2.946v-2.06h3.313v-.83h-4.298v6.93H183v-.83h-3.567z"/></svg>