<svg xmlns="http://www.w3.org/2000/svg" width="770" height="94" viewBox="0 0 770 116"><path fill="#fff" d="M57.691 78.85a769.809 769.809 0 00-10.078-14.717 473.698 473.698 0 00-10.798-14.782 396.106 396.106 0 00-10.667-13.407c-3.491-4.187-6.675-7.718-9.555-10.596H-.031V116h20.157V56.611c7.677 8.983 14.921 18.533 21.728 28.648A457.544 457.544 0 0160.833 116h17.146V25.348H57.691V78.85zm143.714 20.798c-1.223.262-2.64.438-4.254.523-1.616.088-3.557.131-5.825.131-4.188 0-7.853-.72-10.995-2.158-3.141-1.439-5.759-3.467-7.853-6.083s-3.665-5.733-4.712-9.353c-1.047-3.619-1.571-7.653-1.571-12.101 0-9.157 2.115-16.372 6.348-21.649 4.231-5.276 11.103-7.914 20.615-7.914 4.274 0 8.224.545 11.846 1.635 3.62 1.091 6.827 2.377 9.62 3.859l5.89-16.351c-.7-.436-1.855-1.047-3.469-1.831-1.615-.785-3.665-1.547-6.152-2.289-2.487-.741-5.454-1.395-8.9-1.963-3.448-.565-7.309-.85-11.583-.85-6.283 0-12.195 1.046-17.735 3.139-5.542 2.093-10.363 5.167-14.463 9.222-4.103 4.055-7.33 9.005-9.686 14.847-2.356 5.843-3.534 12.558-3.534 20.145 0 7.501 1.068 14.173 3.207 20.014 2.137 5.844 5.17 10.772 9.097 14.782 3.927 4.012 8.659 7.064 14.201 9.156 5.541 2.094 11.714 3.14 18.521 3.14 7.939 0 14.614-.546 20.026-1.634 5.409-1.09 9.336-2.115 11.78-3.075V68.123h-20.418v31.525zm94.109-39.635h-34.293V25.348h-20.418V116h20.418V77.541h34.293V116h20.418V25.348h-20.418v34.665zm33.506-17.267h27.356V116h20.418V42.746h27.355V25.348H329.02v17.398zm181.934 53.632c-1.396.611-3.012 1.157-4.844 1.636-1.832.48-3.926.895-6.283 1.242-2.355.35-5.018.523-7.982.523-4.713 0-8.727-.763-12.043-2.289-3.316-1.525-6-3.598-8.049-6.213-2.053-2.617-3.535-5.734-4.451-9.354-.916-3.617-1.373-7.521-1.373-11.707 0-5.232.697-9.68 2.094-13.343 1.395-3.663 3.25-6.649 5.563-8.96 2.311-2.31 4.973-3.99 7.984-5.037a27.923 27.923 0 019.227-1.569c4.713 0 8.922.523 12.631 1.569 3.709 1.047 6.959 2.312 9.752 3.794l5.891-16.482c-.699-.436-1.834-1.047-3.404-1.831-1.57-.785-3.533-1.547-5.889-2.289-2.357-.741-5.105-1.395-8.246-1.963-3.143-.565-6.633-.85-10.473-.85-6.631 0-12.783 1.046-18.455 3.139-5.672 2.093-10.559 5.167-14.658 9.222-4.104 4.055-7.33 9.026-9.686 14.913-2.357 5.887-3.535 12.58-3.535 20.079 0 15.088 3.861 26.729 11.584 34.927s18.957 12.297 33.703 12.297c6.893 0 12.959-.7 18.193-2.094 5.236-1.395 9.293-2.964 12.174-4.709l-5.629-16.352a196.682 196.682 0 01-3.796 1.701zm42.93-71.03h-20.418V116h60.602V98.471h-40.184V25.348zm104.449 54.678c0 7.325-1.551 12.515-4.646 15.567-3.1 3.053-7.135 4.578-12.107 4.578-2.443 0-4.691-.348-6.74-1.047a12.11 12.11 0 01-5.236-3.467c-1.439-1.611-2.574-3.705-3.402-6.279-.832-2.57-1.244-5.689-1.244-9.353V25.348H604.54v56.38c0 5.319.719 10.183 2.158 14.585 1.441 4.405 3.666 8.199 6.676 11.381 3.01 3.185 6.826 5.67 11.453 7.455 4.623 1.787 10.121 2.684 16.492 2.684 6.455 0 12.041-.873 16.754-2.617 4.711-1.743 8.594-4.206 11.648-7.391 3.053-3.182 5.322-6.998 6.807-11.446 1.482-4.448 2.225-9.331 2.225-14.65v-56.38h-20.418v54.677zm108.504-4.186c-2.094-3.747-6.021-6.713-11.779-8.895 6.98-4.186 10.471-9.896 10.471-17.136 0-4.795-.982-8.829-2.945-12.1-1.963-3.27-4.691-5.907-8.18-7.915-3.492-2.004-7.658-3.421-12.5-4.251C737.06 24.716 731.759 24.3 726 24.3c-4.275 0-8.9.196-13.873.589-4.975.392-9.555.981-13.744 1.766v87.904c5.322 1.135 10.449 1.853 15.381 2.159 4.928.304 9.881.457 14.855.457 13.697 0 24.018-2.396 30.955-7.194 6.938-4.795 10.406-11.946 10.406-21.453-.001-4.708-1.049-8.936-3.143-12.688zm-48.559-34.664c1.57-.173 3.357-.282 5.365-.327 2.006-.042 3.883-.065 5.629-.065 5.408 0 9.51.743 12.303 2.225 2.793 1.484 4.189 4.055 4.189 7.717 0 3.577-1.354 6.171-4.059 7.783-2.705 1.615-7.199 2.42-13.48 2.42h-9.947V41.176zm25.391 56.64c-3.752 1.746-8.684 2.617-14.789 2.617-2.094 0-4.016-.043-5.76-.131a70.792 70.792 0 01-4.842-.393V76.494h12.826c5.846 0 10.34.896 13.482 2.683 3.141 1.788 4.711 4.774 4.711 8.96.001 4.711-1.876 7.937-5.628 9.679zM106.241 22.411c3.275 2.5 10.765.812 16.738-3.764 5.978-4.579 8.162-10.313 4.89-12.812-1.515-1.161-3.943-1.408-6.701-.9-1.074-.927-2.772-1.37-4.438-1.013l-5.61 1.203c-2.322.5-3.68 2.341-3.028 4.121l.828 2.266c-4.249 4.16-5.51 8.739-2.679 10.899zM119.3 15.78c4.2-1.449 6.483-4.596 5.346-7.207.094.129.189.253.27.387 1.58 2.682-.724 6.093-5.147 7.616-4.424 1.526-9.293.591-10.872-2.089a3.757 3.757 0 01-.201-.408c1.804 2.377 6.404 3.153 10.604 1.701zm.069 10.274h-2.782v1.73h2.782v-1.73zm.11 27.605V29.515h-2.78v24.144l1.35 3.882 1.43-3.882zm-20.567 50.38c-4.897 4.297 2.614 11.02 7.513 6.725 4.027-3.531 7.272-7.501 10.008-11.733-1.956-3.45-4.205-7.438-4.895-11.229-2.922 5.683-7.516 11.761-12.626 16.237zm19.829-31.014c4.719 8.212 3.661 7.184 5.995 10.202 2.942-6.159 4.899-14.168 5.331-21.143.2-.555.135-1.005-.144-1.38.188-.259.314-.609.314-1.158v-18.31l24.153-35.03c-2.182-5.255-7.472-4.803-7.472-4.803-4.901 6.726-13.996 18.876-19.894 24.83a5.887 5.887 0 00-2.09-.383h-.885l-2.476 5.319V59.24c-2.162.064-4.498.252-6.725.488V31.486l-2.83-5.633h-2.831c-.513 0-.995.084-1.459.203-6.251-5.619-15.983-15.294-20.781-21.872 0 0-8.921-2.219-7.472 4.041 2.022 2.451 15.285 20.743 24.401 31.204v20.118c0 .431.085.732.205.978.03.703.292 2.353 1.051 5.839 1.049 8.568 12.237 31.787 12.277 31.723 2.674 5.393 5.678 10.647 9.144 15.711 3.564 5.222 12.75.449 9.166-4.798-4.913-7.191-15.206-30.109-16.978-35.975zm-13.989-11.88l-.002-.006a.013.013 0 00.007.006h-.005z"/></svg>