<svg xmlns="http://www.w3.org/2000/svg" width="88" height="88"><path fill-rule="evenodd" clip-rule="evenodd" fill="#FF2A70" d="M44.167 6.661c-20.711 0-37.502 16.792-37.502 37.507 0 20.714 16.791 37.506 37.502 37.506 20.712 0 37.503-16.792 37.503-37.506 0-20.715-16.791-37.507-37.503-37.507zm14.54 39.449c-1.908 1.002-18.126 12.718-19.245 13.299-1.396.724-2.809-.197-2.809-1.437v-26.65c0-1.365 1.561-2.027 2.751-1.428 1.626.818 17.93 12.594 19.303 13.328 1.232.66 1.254 2.23 0 2.888z"/><path fill="#FFF" d="M44.167 6.661c20.712 0 37.503 16.792 37.503 37.507 0 20.714-16.791 37.506-37.503 37.506-20.711 0-37.502-16.792-37.502-37.506 0-20.715 16.791-37.507 37.502-37.507m0-6C20.18.661.665 20.178.665 44.168c0 23.989 19.515 43.506 43.502 43.506S87.67 68.157 87.67 44.167C87.67 20.178 68.154.661 44.167.661z" opacity=".25"/></svg>