<svg xmlns="http://www.w3.org/2000/svg" width="135" height="128"><path clip-rule="evenodd" fill="none" d="M-153.5-759.5h-7a2 2 0 00-2 2v26a2 2 0 002 2h7a2 2 0 002-2v-26a2 2 0 00-2-2z"/><path fill-rule="evenodd" clip-rule="evenodd" fill="#181818" d="M40.435 40.537h54.001v47H40.435v-47z"/><g fill-rule="evenodd" clip-rule="evenodd"><path fill="#383838" d="M133 49.073h-7a2 2 0 00-2 2v26.001c0 1.104.896 1.998 2 1.998h7a2 2 0 002-1.998V51.073a2 2 0 00-2-2z"/><path fill="#181818" d="M127 49.073h-24v30h24v-30z"/></g><g fill-rule="evenodd" clip-rule="evenodd"><path fill="#383838" d="M52.37 2v7a2 2 0 002 2h26.001a1.999 1.999 0 001.998-2V2a2 2 0 00-1.998-2H54.37a2 2 0 00-2 2z"/><path fill="#181818" d="M52.37 8v24h30V8h-30z"/></g><g fill-rule="evenodd" clip-rule="evenodd"><path fill="#383838" d="M2 79.072h7a2 2 0 002-2v-26a1.999 1.999 0 00-2-1.998H2a2 2 0 00-2 1.998v26a2 2 0 002 2z"/><path fill="#181818" d="M8 79.072h24v-30H8v30z"/></g><g fill-rule="evenodd" clip-rule="evenodd"><path fill="#383838" d="M82.37 126v-7a2 2 0 00-2-2H54.369a1.999 1.999 0 00-1.998 2v7a2 2 0 001.998 2H80.37a2 2 0 002-2z"/><path fill="#181818" d="M82.37 120V96h-30v24h30z"/></g></svg>