<svg xmlns="http://www.w3.org/2000/svg" width="173.07" height="128" viewBox="-0.635 0 173.07 128"><path fill="#181818" d="M39.902 40.5h93v47h-93v-47z"/><path fill="none" d="M-154.5-759.5h-7a2 2 0 00-2 2v26a2 2 0 002 2h7a2 2 0 002-2v-26a2 2 0 00-2-2z"/><path fill="#383838" d="M171.439 49.25h-7a2 2 0 00-2 2v26.001c0 1.104.896 1.998 2 1.998h7a2 2 0 002-1.998V51.25a2 2 0 00-2-2z"/><path fill="#181818" d="M165.439 49.25h-24v30h24v-30z"/><path fill="#383838" d="M1.365 79h7a2 2 0 002-2V51a1.999 1.999 0 00-2-1.998h-7a2 2 0 00-2 1.998v26a2 2 0 002 2z"/><path fill="#181818" d="M7.365 79h24V49h-24v30z"/><path fill="#383838" d="M50.902 2v7a2 2 0 002 2h26.001a1.999 1.999 0 001.998-2V2a2 2 0 00-1.998-2H52.902a2 2 0 00-2 2z"/><path fill="#181818" d="M50.902 8v24h30V8h-30z"/><path fill="#383838" d="M80.902 126v-7a2 2 0 00-2-2H52.901a1.999 1.999 0 00-1.998 2v7a2 2 0 001.998 2h26.001a2 2 0 002-2z"/><path fill="#181818" d="M80.902 120V96h-30v24h30z"/><path fill="#383838" d="M91.902 2.073v7a2 2 0 002 2h26.002a1.999 1.999 0 001.998-2v-7a2 2 0 00-1.998-2H93.902a2 2 0 00-2 2z"/><path fill="#181818" d="M91.902 8.073v24h30.001v-24H91.902z"/><path fill="#383838" d="M121.903 126.073v-7a2 2 0 00-2-2H93.902a1.999 1.999 0 00-1.998 2v7a2 2 0 001.998 2h26.001c1.106 0 2-.895 2-2z"/><path fill="#181818" d="M121.903 120.073v-24H91.902v24h30.001z"/></svg>