<svg xmlns="http://www.w3.org/2000/svg" width="216.189" height="128" viewBox="-1 0 216.189 128"><path fill="#181818" d="M39.652 40.715h135v47h-135v-47z"/><path fill="none" d="M-154.5-759.5h-7a2 2 0 00-2 2v26a2 2 0 002 2h7a2 2 0 002-2v-26a2 2 0 00-2-2z"/><path fill="#383838" d="M213.189 49.216h-7a2 2 0 00-2 2v26.001c0 1.104.896 1.998 2 1.998h7a2 2 0 002-1.998V51.216c0-1.106-.895-2-2-2z"/><path fill="#181818" d="M207.189 49.216h-24v29.999h24V49.216z"/><path fill="#383838" d="M1 79.215h7a2 2 0 002-2v-26a1.999 1.999 0 00-2-1.998H1a2 2 0 00-2 1.998v26a2 2 0 002 2z"/><path fill="#181818" d="M7 79.215h24V49.216H7v29.999z"/><path fill="#383838" d="M51.152 2v7a2 2 0 002 2h26.001a1.999 1.999 0 001.998-2V2a2 2 0 00-1.998-2H53.152a2 2 0 00-2 2z"/><path fill="#181818" d="M51.152 8v24h30V8h-30z"/><path fill="#383838" d="M81.152 126v-7a2 2 0 00-2-2H53.151a1.999 1.999 0 00-1.998 2v7a2 2 0 001.998 2h26.001a2 2 0 002-2z"/><path fill="#181818" d="M81.152 120V96h-30v24h30z"/><path fill="#383838" d="M92.152 2.073v7a2 2 0 002 2h26.002a1.999 1.999 0 001.998-2v-7a2 2 0 00-1.998-2H94.152a2 2 0 00-2 2z"/><path fill="#181818" d="M92.152 8.073v24h30.001v-24H92.152z"/><path fill="#383838" d="M122.153 126.073v-7a2 2 0 00-2-2H94.152a1.999 1.999 0 00-1.998 2v7a2 2 0 001.998 2h26.001c1.106 0 2-.895 2-2z"/><path fill="#181818" d="M122.153 120.073v-24H92.152v24h30.001z"/><path fill="#383838" d="M133.153 2.073v7a2 2 0 002 2h26.001a1.999 1.999 0 001.998-2v-7a2 2 0 00-1.998-2h-26.001a2 2 0 00-2 2z"/><path fill="#181818" d="M133.153 8.073v24h30v-24h-30z"/><path fill="#383838" d="M163.153 126.072v-7a2 2 0 00-2-2h-26.002a1.999 1.999 0 00-1.998 2v7a2 2 0 001.998 2h26.002c1.106 0 2-.894 2-2z"/><path fill="#181818" d="M163.153 120.072v-24h-30v24h30z"/></svg>